<svg id="Camada_1" data-name="Camada 1" xmlns="http://www.w3.org/2000/svg" viewBox="0 0 66.63 38.37"><defs><style>.cls-1{fill:none;stroke:#000;stroke-miterlimit:10;}</style></defs><title>logo-blogDosNoob</title><path class="cls-1" d="M5.79,17a80.44,80.44,0,0,1,26.56,7.84,31,31,0,0,0,6.95,2.9,8.37,8.37,0,0,0,7.17-1.34c1.86-1.57,2.59-4.08,3.22-6.44" transform="translate(-5.73 -6.19)"/><path class="cls-1" d="M18.38,23.92c.6-3,2.89-5.29,5.32-7.08a32,32,0,0,1,27.07-4.95" transform="translate(-5.73 -6.19)"/><path class="cls-1" d="M34.47,6.29a205.92,205.92,0,0,0,8.82,30.49,16.47,16.47,0,0,0,2.59,5A5.89,5.89,0,0,0,50.81,44,8.42,8.42,0,0,0,54,42.77c7.06-4,14.05-8.88,18-16" transform="translate(-5.73 -6.19)"/></svg>